<?xml version="1.0" standalone="no"?>
<!DOCTYPE svg PUBLIC "-//W3C//DTD SVG 20010904//EN"
 "http://www.w3.org/TR/2001/REC-SVG-20010904/DTD/svg10.dtd">
<svg version="1.0" xmlns="http://www.w3.org/2000/svg"
 width="700.000000pt" height="700.000000pt" viewBox="0 0 700.000000 700.000000"
 preserveAspectRatio="xMidYMid meet">
<metadata>
Created by potrace 1.11, written by Peter Selinger 2001-2013
</metadata>
<g transform="translate(0.000000,700.000000) scale(0.100000,-0.100000)"
fill="#000000" stroke="none">
<path d="M3473 4586 c-21 -19 -47 -51 -58 -73 -36 -70 -117 -186 -219 -313
-56 -69 -153 -205 -216 -303 -63 -97 -117 -176 -120 -177 -3 0 -54 42 -115 93
-188 159 -245 193 -281 169 -13 -9 -66 -86 -170 -252 -204 -324 -418 -560
-593 -654 -43 -23 -74 -51 -118 -106 -33 -41 -78 -91 -100 -112 -53 -47 -492
-338 -702 -464 l-164 -99 2788 -3 c1534 -1 2790 0 2792 2 2 2 -31 63 -73 137
-43 74 -95 172 -117 219 -91 198 -109 230 -145 260 -46 38 -74 47 -189 59
-179 19 -250 74 -317 246 -16 39 -38 88 -51 110 -39 69 -348 317 -417 336 -70
18 -100 -8 -215 -191 -44 -69 -87 -137 -97 -152 l-18 -27 -74 62 c-90 74 -200
204 -243 284 -17 32 -69 105 -116 163 -170 208 -201 246 -246 296 -62 69 -93
124 -119 214 -35 116 -87 214 -141 265 -61 57 -93 59 -146 11z m116 -264 c5
-20 12 -50 15 -67 51 -287 62 -316 175 -494 87 -136 110 -184 111 -231 0 -70
-45 -79 -100 -21 -25 27 -41 36 -48 29 -15 -15 30 -120 76 -182 55 -73 82
-129 89 -186 10 -81 -24 -130 -91 -130 -34 0 -110 54 -212 151 -106 102 -129
115 -220 129 -101 15 -193 65 -304 162 -131 115 -131 107 9 301 60 84 137 198
171 253 76 121 171 244 234 302 39 36 49 41 66 32 11 -6 24 -27 29 -48z m-954
-646 c94 -88 125 -128 125 -162 0 -9 -13 -46 -30 -81 -16 -34 -30 -73 -30 -86
0 -35 34 -77 107 -132 52 -39 72 -61 87 -98 20 -47 20 -49 1 -121 -23 -95 -17
-131 38 -208 38 -54 77 -120 77 -130 0 -2 -46 0 -102 5 -80 7 -135 5 -245 -9
-176 -21 -248 -12 -369 47 -116 56 -164 62 -404 54 -121 -4 -201 -3 -195 2 6
5 32 26 58 47 207 164 387 381 693 833 49 72 90 131 91 130 1 -1 45 -42 98
-91z m2198 -214 c9 -10 26 -39 37 -65 18 -40 20 -59 15 -115 -6 -52 -3 -77 9
-107 24 -56 47 -78 145 -132 49 -28 116 -77 159 -117 98 -93 202 -250 180
-272 -8 -7 -252 88 -347 135 -159 78 -261 167 -337 292 -59 98 -58 119 20 242
36 58 71 117 77 131 14 31 21 32 42 8z"/>
<path d="M1920 1915 l0 -257 158 4 c143 3 160 5 194 26 50 31 83 99 74 155 -4
22 -11 46 -16 52 -6 7 -4 26 5 50 8 22 14 51 15 64 0 42 -39 109 -78 133 -34
21 -51 23 -194 26 l-158 4 0 -257z m290 104 c20 -36 -3 -49 -86 -49 l-74 0 0
35 0 35 75 0 c65 0 76 -3 85 -21z m-1 -176 c6 -11 6 -24 0 -35 -8 -15 -23 -18
-84 -18 l-75 0 0 35 0 35 75 0 c60 0 76 -3 84 -17z"/>
<path d="M2810 1915 l0 -255 215 0 215 0 0 70 0 70 -150 0 -150 0 0 30 0 30
100 0 100 0 0 55 0 55 -100 0 -100 0 0 30 0 30 150 0 150 0 0 70 0 70 -215 0
-215 0 0 -255z"/>
<path d="M3700 1915 l0 -255 65 0 65 0 0 65 0 65 33 0 c29 0 36 -7 70 -65 l38
-65 74 0 c41 0 75 3 75 6 0 3 -19 37 -41 75 l-41 69 35 39 c101 112 56 271
-88 310 -22 6 -95 11 -162 11 l-123 0 0 -255z m278 103 c7 -7 12 -24 12 -38 0
-40 -18 -50 -92 -50 l-68 0 0 50 0 50 68 0 c40 0 73 -5 80 -12z"/>
<path d="M4790 2160 c-87 -19 -142 -61 -176 -135 -91 -194 77 -404 281 -352
46 12 55 12 55 0 0 -10 18 -13 70 -13 l70 0 0 155 0 155 -105 0 -105 0 0 -55
0 -55 33 0 32 -1 -33 -29 c-72 -66 -192 -13 -192 85 0 85 109 147 176 101 19
-14 24 -12 68 33 45 45 46 48 28 64 -42 38 -139 61 -202 47z"/>
</g>
</svg>
